<?xml version="1.0" encoding="utf-8"?>
<!-- Generator: Adobe Adobe Illustrator 24.2.0, SVG Export Plug-In . SVG Version: 6.00 Build 0)  -->
<svg version="1.1" id="Layer_1" xmlns="http://www.w3.org/2000/svg" xmlns:xlink="http://www.w3.org/1999/xlink" x="0px" y="0px"
	 width="16.86px" height="16.76px" viewBox="0 0 16.86 16.76" style="enable-background:new 0 0 16.86 16.76;" xml:space="preserve"
	>
<style type="text/css">
	.st0{fill:#383331;}
	.st1{fill:none;stroke:#DBDCDE;stroke-miterlimit:10;}
	.st2{clip-path:url(#SVGID_6_);fill:#383331;}
	.st3{clip-path:url(#SVGID_12_);fill:#383331;}
	.st4{clip-path:url(#SVGID_18_);fill:#383331;}
	.st5{fill:none;stroke:#383331;stroke-miterlimit:10;}
	.st6{fill:none;stroke:#383331;stroke-width:4;stroke-miterlimit:10;}
	.st7{fill:#DBDCDE;}
	.st8{fill-rule:evenodd;clip-rule:evenodd;fill:#DBDCDE;}
</style>
<g>
	<g>
		<path class="st0" d="M9.65,1.46c1.67,1.5,2.3,3.77,1.68,5.93c-0.19,0.67-0.56,1.27-0.92,1.86l0.69,0.62
			c0.72-0.03,1.16,0.09,1.7,0.56c1.3,1.1,2.54,2.59,3.77,3.78c0.8,1.21-0.17,2.71-1.59,2.54c-0.55-0.07-1.35-0.91-1.77-1.31
			c-0.85-0.8-1.83-1.71-2.61-2.56c-0.55-0.6-0.74-0.92-0.67-1.79l-0.56-0.73c-0.09-0.05-0.77,0.42-0.91,0.49
			c-4.5,2.4-9.66-1.86-8.21-6.74C1.44,0.1,6.52-1.35,9.65,1.46z M2.33,2.4C0.21,4.55,0.68,8.35,3.32,9.86
			c3.83,2.2,8.32-1.35,7.01-5.58C9.28,0.89,4.81-0.1,2.33,2.4z"/>
	</g>
</g>
</svg>
